<?xml version="1.0" encoding="utf-8"?>
<!-- Generator: Adobe Illustrator 15.1.0, SVG Export Plug-In . SVG Version: 6.00 Build 0)  -->
<!DOCTYPE svg PUBLIC "-//W3C//DTD SVG 1.1//EN" "http://www.w3.org/Graphics/SVG/1.1/DTD/svg11.dtd">
<svg version="1.1" id="Layer_1" xmlns="http://www.w3.org/2000/svg" xmlns:xlink="http://www.w3.org/1999/xlink" x="0px" y="0px"
	 width="1670.1px" height="790px" viewBox="0 0 1670.1 790" enable-background="new 0 0 1670.1 790" xml:space="preserve">
<path fill-rule="evenodd" clip-rule="evenodd" fill="#666769" d="M313.999,51c-0.97,2.46-1.37,5.43-3.01,7.29
	c-7.979,9.06-16.379,17.73-24.379,26.76c-1.21,1.37-1.56,3.88-1.56,5.86c-0.08,57.14-0.07,114.27-0.07,171.4c0,1.99,0,3.97,0,6.31
	c-60.6,0-120.96,0-181.97,0c0-1.88,0-3.81,0-5.74c0-55.47-0.21-110.94,0.229-166.4c0.061-7.94-2.689-13.39-7.8-18.6
	c-5.79-5.91-11.64-11.81-16.96-18.14c-1.92-2.28-2.37-5.79-3.479-8.74C154.659,51,234.329,51,313.999,51L313.999,51z"/>
<path fill-rule="evenodd" clip-rule="evenodd" fill="#666769" d="M195.999,739c-7.95-16.95-15.89-33.899-23.85-50.9
	c-10.07,4.21-19.63,8.2-29.46,12.311c-3.49-7.07-6.79-13.74-10.13-20.511c44.01-22.229,87.49-44.199,131.53-66.449
	c2.71,5.34,5.45,10.279,7.65,15.449c0.4,0.931-0.99,3.23-2.15,4.141c-11.96,9.4-24.42,18.21-35.97,28.07
	c-11.76,10.039-18.11,23.89-23.23,38.16c-4.72,13.149-8.95,26.479-13.39,39.729C196.659,739,196.33,739,195.999,739L195.999,739z"/>
<path fill-rule="evenodd" clip-rule="evenodd" fill="#666769" d="M318.099,276.23c-0.46,3.64-0.66,6.91-1.4,10.05
	c-0.25,1.07-1.73,2.32-2.88,2.63c-9.82,2.63-18.63,7.41-26.06,14.07c-7.42,6.66-11.94,15.44-13.76,25.39
	c-1.77,9.68-1.29,19.28,0.871,28.88c1.149,5.08-3.871,14.66-8.7,17.08c-43.79,21.931-87.59,43.83-131.431,65.68
	c-7.3,3.64-14.76,6.98-22.64,10.69c-2.12-18.2-4.2-36.16-6.33-54.439c-14.37,6.92-28.64,13.799-43.65,21.02
	c-3.59-6.51-7.19-13.04-11.12-20.16c3.49-1.971,6.899-4.07,10.45-5.88c22.18-11.28,44.43-22.41,66.57-33.771
	c29.7-15.229,59.28-30.69,88.97-45.93c25.94-13.31,53.29-22.77,81.59-29.6C304.91,280.41,311.089,278.3,318.099,276.23
	L318.099,276.23z"/>
<path fill-rule="evenodd" clip-rule="evenodd" fill="#666769" d="M303.179,380.851c3.62,6.27,7.12,12.319,11.35,19.64
	c-3.55,1.909-6.74,4.18-10.28,5.439c-13.67,4.86-25.15,12.44-31.14,26.08c-4.74,10.79-5.84,22.15-4.44,34.101
	c1.16,9.96-1.9,20.289-15.15,26.869c-28.99,14.4-58.25,28.25-87.36,42.42c-11.76,5.73-23.41,11.711-35.82,17.92
	c-3.88-18.319-7.7-36.309-11.63-54.859c-11.29,5-21.98,9.74-33,14.62c-3.71-6.66-7.39-13.271-11.36-20.41
	C150.919,455.25,226.989,418.08,303.179,380.851L303.179,380.851z"/>
<path fill-rule="evenodd" clip-rule="evenodd" fill="#666769" d="M156.589,642.93c-5.1-14.669-10.16-29.21-15.29-43.96
	c-11.87,5.291-23.11,10.311-34.58,15.43c-3.46-6.949-6.72-13.489-10.35-20.77c64.26-31.59,128.17-63.01,192.51-94.64
	c2.98,5.88,6.27,11.54,8.75,17.54c1.61,3.89-1.62,5.47-4.83,6.539c-9.5,3.171-18.54,7.141-25.82,14.391
	c-10.01,9.96-15.03,22.38-17.96,35.83c-1.21,5.561-1.42,11.41-3.2,16.75c-2.85,8.54-9.56,13.89-17.42,17.82
	c-17.13,8.57-34.25,17.149-51.42,25.609C170.259,636.78,163.399,639.79,156.589,642.93L156.589,642.93z"/>
<path fill-rule="evenodd" clip-rule="evenodd" fill="#666769" d="M103.929,287.22c36.09-0.77,72.37-1.55,108.64-2.32
	c0.34,1.83,0.61,3.25,1.011,5.39c-36.091,18.46-72.38,37.02-109.65,56.08C103.929,326.4,103.929,307.01,103.929,287.22
	L103.929,287.22z"/>
<g>
	<path fill="#E83742" d="M414.039,188.201h-6.656v46.798h-37.647V87.74h58.862c30.367,0,53.87,13.936,54.702,48.462
		c0,27.247-11.023,42.638-28.911,48.254l40.143,50.542h-46.383L414.039,188.201z M429.222,156.17c23.503,0,23.503-33.695,0-33.695
		h-21.839v33.695H429.222z"/>
	<path fill="#E83742" d="M541.75,145.562h59.694v32.239H541.75v22.047h64.894v35.151H504.103V87.74h102.541v34.943H541.75V145.562z"
		/>
	<path fill="#E83742" d="M626.407,87.74h35.359l35.567,62.814l12.479,29.535l1.04-0.208c-0.208,0-3.952-25.375-4.16-25.375V87.74
		h37.023v147.259h-37.647l-33.279-58.03l-12.896-29.535l-1.04,0.208l4.784,28.495v58.862h-37.231V87.74z"/>
	<path fill="#E83742" d="M783.445,188.409c14.768,17.887,47.214,18.719,48.254,2.912c0.416-8.32-13.104-13.104-25.167-14.768
		c-23.711-3.744-45.342-18.719-45.342-46.798c0-28.911,26.207-44.095,53.246-44.095c17.888,0,35.15,4.992,50.334,23.503
		l-24.335,18.719c-15.391-16.431-41.807-15.808-42.43,1.248c0.416,7.072,8.111,11.231,19.551,13.728
		c26.207,4.784,52.414,13.936,50.75,50.126c-1.248,28.495-31.199,44.095-58.238,44.095c-17.68,0-36.399-8.944-50.126-26.623
		L783.445,188.409z"/>
	<path fill="#E83742" d="M900.756,188.409c14.768,17.887,47.214,18.719,48.254,2.912c0.416-8.32-13.104-13.104-25.167-14.768
		c-23.711-3.744-45.342-18.719-45.342-46.798c0-28.911,26.207-44.095,53.246-44.095c17.887,0,35.15,4.992,50.334,23.503
		l-24.335,18.719c-15.392-16.431-41.807-15.808-42.431,1.248c0.416,7.072,8.111,11.231,19.551,13.728
		c26.207,4.784,52.414,13.936,50.751,50.126c-1.248,28.495-31.199,44.095-58.238,44.095c-17.68,0-36.398-8.944-50.126-26.623
		L900.756,188.409z"/>
	<path fill="#E83742" d="M1039.283,145.562h59.694v32.239h-59.694v22.047h64.894v35.151h-102.54V87.74h102.54v34.943h-64.894
		V145.562z"/>
	<path fill="#E83742" d="M1123.94,87.74h37.438v110.444h59.902v36.814h-97.341V87.74z"/>
	<path fill="#E83742" d="M1361.053,234.999h-39.935l-9.568-29.535h-39.311l-9.151,29.535h-39.935l51.374-147.259h33.903
		L1361.053,234.999z M1302.607,172.393l-10.191-43.054h-1.04l-10.815,43.054H1302.607z"/>
	<path fill="#E83742" d="M1408.479,145.562h59.694v32.239h-59.694v22.047h64.894v35.151h-102.54V87.74h102.54v34.943h-64.894
		V145.562z"/>
	<path fill="#E83742" d="M1537.439,188.201h-6.656v46.798h-37.646V87.74h58.862c30.366,0,53.87,13.936,54.702,48.462
		c0,27.247-11.024,42.638-28.911,48.254l40.143,50.542h-46.383L1537.439,188.201z M1552.623,156.17c23.503,0,23.503-33.695,0-33.695
		h-21.84v33.695H1552.623z"/>
</g>
<g>
	<path d="M385.111,476.796h-5.725V314.661h5.725v78.319h102.365v-78.319h5.725v162.135h-5.725v-78.09H385.111V476.796z"/>
	<path d="M524.8,476.796h-6.183l59.999-162.135h9.16l59.999,162.135h-6.183l-21.526-57.938h-73.739L524.8,476.796z M582.738,320.157
		l-34.351,92.976h69.617l-34.351-92.976H582.738z"/>
</g>
<g>
	<path d="M667.24,357.714c0-29.771,28.854-45.343,57.48-45.343c20.381,0,40.763,7.786,50.381,23.358l-5.038,3.664
		c-8.473-13.969-27.48-21.526-46.03-21.526c-25.19,0-51.068,13.282-51.068,39.847v76.029c0,26.564,25.877,39.617,51.068,39.617
		c18.32,0,37.099-6.641,46.03-20.381l5.038,2.52c-9.618,15.572-30.458,23.587-51.068,23.587c-28.167,0-56.793-15.343-56.793-45.343
		V357.714z"/>
	<path d="M810.136,413.133l95.953-98.472h7.328l-74.885,78.09l74.885,84.045h-6.641l-72.365-79.922l-24.275,24.273v55.648h-5.725
		V314.661h5.725V413.133z"/>
	<path d="M928.754,476.796h-6.183l59.999-162.135h9.16l59.999,162.135h-6.183l-21.527-57.938h-73.738L928.754,476.796z
		 M986.693,320.157l-34.351,92.976h69.617l-34.351-92.976H986.693z"/>
</g>
<g>
	<path d="M1156.153,320.386h-54.045v156.41h-5.726v-156.41h-54.045v-5.725h113.815V320.386z"/>
	<path d="M1188.208,476.796h-5.725V314.661h5.725v78.319h102.365v-78.319h5.725v162.135h-5.725v-78.09h-102.365V476.796z"/>
	<path d="M1335.225,358.172c0-30.458,29.999-45.801,60.228-45.801s60.457,15.343,60.457,45.801v74.884
		c0,30.458-30.229,46.03-60.457,46.03s-60.228-15.572-60.228-46.03V358.172z M1340.95,433.056c0,27.023,27.022,40.305,54.503,40.305
		c27.251,0,54.731-13.281,54.731-40.305v-74.884c0-28.396-27.709-40.305-54.961-40.305c-27.251,0.229-54.273,12.366-54.273,40.305
		V433.056z"/>
	<path d="M1600.407,471.3V314.661h5.725v162.135h-9.848l-95.036-154.807l-0.229,154.807h-5.953V314.661h8.931L1600.407,471.3z"/>
</g>
<g>
	<path d="M372.873,589.745c0-25.535,25.152-38.4,50.496-38.4c25.344,0,50.688,12.865,50.688,38.4v62.785
		c0,25.535-25.344,38.592-50.688,38.592c-25.344,0-50.496-13.057-50.496-38.592V589.745z M377.672,652.53
		c0,22.656,22.656,33.792,45.696,33.792c22.848,0,45.889-11.136,45.889-33.792v-62.785c0-23.808-23.232-33.792-46.081-33.792
		c-22.848,0.192-45.504,10.368-45.504,33.792V652.53z"/>
	<path d="M588.104,689.202l-45.696-60.672h-30.912v60.672h-4.608V553.265h48c23.616,0,41.664,9.217,42.24,36.865
		c0,28.224-17.28,38.4-42.048,38.4h-7.296l45.888,60.672H588.104z M555.079,624.306c24.768,0,37.44-9.984,37.44-33.984
		c0-24.576-15.744-33.023-37.44-32.641h-43.584v66.625H555.079z"/>
	<path d="M621.317,589.361c0-24.96,23.808-38.017,47.616-38.017c17.088,0,33.984,6.721,42.048,19.776l-4.416,2.88
		c-6.912-12.479-22.464-17.855-38.016-17.855c-21.312,0-42.432,10.943-42.432,33.216v63.169c0,22.656,21.312,33.984,42.816,33.984
		c21.313,0,43.008-11.328,43.008-33.984v-25.729h-41.664v-4.607h46.464v30.336c0,25.729-24,38.592-47.809,38.592
		s-47.616-12.863-47.616-38.592V589.361z"/>
	<path d="M736.707,689.202h-5.184l50.304-135.938h7.68l50.305,135.938h-5.185l-18.048-48.576h-61.825L736.707,689.202z
		 M785.283,557.873l-28.8,77.952h58.369l-28.8-77.952H785.283z"/>
	<path d="M949.442,684.595v-131.33h4.8v135.938h-8.256l-79.681-129.793l-0.191,129.793h-4.992V553.265h7.487L949.442,684.595z"/>
	<path d="M994.751,689.202h-4.8V553.265h4.8V689.202z"/>
	<path d="M1022.015,553.265h88.32l1.729,2.496l-87.361,129.217h84.673v4.225h-89.28l-1.92-2.305l87.36-129.408h-83.521V553.265z"/>
	<path d="M1126.654,689.202h-5.184l50.305-135.938h7.68l50.305,135.938h-5.185l-18.048-48.576h-61.824L1126.654,689.202z
		 M1175.231,557.873l-28.801,77.952h58.368l-28.8-77.952H1175.231z"/>
</g>
<g>
	<path d="M1315.776,558.065h-45.313v131.137h-4.8V558.065h-45.313v-4.801h95.425V558.065z"/>
	<path d="M1342.653,689.202h-4.8V553.265h4.8V689.202z"/>
	<path d="M1375.292,589.745c0-25.535,25.152-38.4,50.496-38.4c25.345,0,50.688,12.865,50.688,38.4v62.785
		c0,25.535-25.344,38.592-50.688,38.592c-25.344,0-50.496-13.057-50.496-38.592V589.745z M1380.092,652.53
		c0,22.656,22.656,33.792,45.696,33.792c22.849,0,45.889-11.136,45.889-33.792v-62.785c0-23.808-23.232-33.792-46.08-33.792
		c-22.849,0.192-45.505,10.368-45.505,33.792V652.53z"/>
	<path d="M1597.627,684.595v-131.33h4.8v135.938h-8.256l-79.681-129.793l-0.191,129.793h-4.992V553.265h7.487L1597.627,684.595z"/>
</g>
</svg>
